<svg id="SvgjsSvg1021" width="288" height="288" xmlns="http://www.w3.org/2000/svg" version="1.1" xmlns:xlink="http://www.w3.org/1999/xlink" xmlns:svgjs="http://svgjs.com/svgjs"><defs id="SvgjsDefs1022"></defs><g id="SvgjsG1023"><svg xmlns="http://www.w3.org/2000/svg" viewBox="0 0 20 20" width="288" height="288"><path fill="#384d48" fill-rule="evenodd" d="M258,853 L258,852 C258,851.448 258.448,851 259,851 L262,851 L262,856 C262,856.552 261.552,857 261,857 L247,857 C246.448,857 246,856.552 246,856 L246,851 L249,851 C249.552,851 250,851.448 250,852 L250,853 C250,854.105 250.895,855 252,855 L256,855 C257.105,855 258,854.105 258,853 L258,853 Z M256,851 L256,853 L252,853 L252,851 C252,849.895 251.105,849 250,849 L246,849 L247.6,841 L260.4,841 L262,849 L258,849 C256.895,849 256,849.895 256,851 L256,851 Z M264,849 L262.161,839.804 C262.067,839.336 261.657,839 261.18,839 L246.82,839 C246.343,839 245.933,839.336 245.839,839.804 L244,849 L244,857 C244,858.105 244.895,859 246,859 L262,859 C263.105,859 264,858.105 264,857 L264,849 Z" transform="translate(-244 -839)" class="color000 svgShape"></path></svg></g></svg>